<svg width="24" height="8" viewBox="0 0 24 8" fill="none" xmlns="http://www.w3.org/2000/svg">
<path d="M0.97 6.42C1.61 5.88667 2.12 5.44333 2.5 5.09C2.88 4.73 3.19667 4.35667 3.45 3.97C3.70333 3.58333 3.83 3.20333 3.83 2.83C3.83 2.49 3.75 2.22333 3.59 2.03C3.43 1.83667 3.18333 1.74 2.85 1.74C2.51667 1.74 2.26 1.85333 2.08 2.08C1.9 2.3 1.80667 2.60333 1.8 2.99H0.44C0.466667 2.19 0.703333 1.58333 1.15 1.17C1.60333 0.756666 2.17667 0.549999 2.87 0.549999C3.63 0.549999 4.21333 0.753333 4.62 1.16C5.02667 1.56 5.23 2.09 5.23 2.75C5.23 3.27 5.09 3.76667 4.81 4.24C4.53 4.71333 4.21 5.12667 3.85 5.48C3.49 5.82667 3.02 6.24667 2.44 6.74H5.39V7.9H0.45V6.86L0.97 6.42ZM6.27219 4.26C6.27219 3.10667 6.47885 2.20333 6.89219 1.55C7.31219 0.896666 8.00552 0.57 8.97219 0.57C9.93885 0.57 10.6289 0.896666 11.0422 1.55C11.4622 2.20333 11.6722 3.10667 11.6722 4.26C11.6722 5.42 11.4622 6.33 11.0422 6.99C10.6289 7.65 9.93885 7.98 8.97219 7.98C8.00552 7.98 7.31219 7.65 6.89219 6.99C6.47885 6.33 6.27219 5.42 6.27219 4.26ZM10.2922 4.26C10.2922 3.76667 10.2589 3.35333 10.1922 3.02C10.1322 2.68 10.0055 2.40333 9.81219 2.19C9.62552 1.97667 9.34552 1.87 8.97219 1.87C8.59885 1.87 8.31552 1.97667 8.12219 2.19C7.93552 2.40333 7.80885 2.68 7.74219 3.02C7.68219 3.35333 7.65219 3.76667 7.65219 4.26C7.65219 4.76667 7.68219 5.19333 7.74219 5.54C7.80219 5.88 7.92885 6.15667 8.12219 6.37C8.31552 6.57667 8.59885 6.68 8.97219 6.68C9.34552 6.68 9.62885 6.57667 9.82219 6.37C10.0155 6.15667 10.1422 5.88 10.2022 5.54C10.2622 5.19333 10.2922 4.76667 10.2922 4.26ZM13.177 6.42C13.817 5.88667 14.327 5.44333 14.707 5.09C15.087 4.73 15.4037 4.35667 15.657 3.97C15.9104 3.58333 16.037 3.20333 16.037 2.83C16.037 2.49 15.957 2.22333 15.797 2.03C15.637 1.83667 15.3904 1.74 15.057 1.74C14.7237 1.74 14.467 1.85333 14.287 2.08C14.107 2.3 14.0137 2.60333 14.007 2.99H12.647C12.6737 2.19 12.9104 1.58333 13.357 1.17C13.8104 0.756666 14.3837 0.549999 15.077 0.549999C15.837 0.549999 16.4204 0.753333 16.827 1.16C17.2337 1.56 17.437 2.09 17.437 2.75C17.437 3.27 17.297 3.76667 17.017 4.24C16.737 4.71333 16.417 5.12667 16.057 5.48C15.697 5.82667 15.227 6.24667 14.647 6.74H17.597V7.9H12.657V6.86L13.177 6.42ZM18.9192 6.42C19.5592 5.88667 20.0692 5.44333 20.4492 5.09C20.8292 4.73 21.1459 4.35667 21.3992 3.97C21.6526 3.58333 21.7792 3.20333 21.7792 2.83C21.7792 2.49 21.6992 2.22333 21.5392 2.03C21.3792 1.83667 21.1326 1.74 20.7992 1.74C20.4659 1.74 20.2092 1.85333 20.0292 2.08C19.8492 2.3 19.7559 2.60333 19.7492 2.99H18.3892C18.4159 2.19 18.6526 1.58333 19.0992 1.17C19.5526 0.756666 20.1259 0.549999 20.8192 0.549999C21.5792 0.549999 22.1626 0.753333 22.5692 1.16C22.9759 1.56 23.1792 2.09 23.1792 2.75C23.1792 3.27 23.0392 3.76667 22.7592 4.24C22.4792 4.71333 22.1592 5.12667 21.7992 5.48C21.4392 5.82667 20.9692 6.24667 20.3892 6.74H23.3392V7.9H18.3992V6.86L18.9192 6.42Z" fill="white"/>
</svg>
