<svg width="66" height="16" viewBox="0 0 66 16" fill="none" xmlns="http://www.w3.org/2000/svg">
<path d="M4.64 6.22V11.58C4.64 11.9533 4.72667 12.2267 4.9 12.4C5.08667 12.56 5.39333 12.64 5.82 12.64H7.12V15H5.36C3 15 1.82 13.8533 1.82 11.56V6.22H0.5V3.92H1.82V1.18H4.64V3.92H7.12V6.22H4.64ZM8.41391 9.42C8.41391 8.3 8.63391 7.30667 9.07391 6.44C9.52724 5.57333 10.1339 4.90667 10.8939 4.44C11.6672 3.97333 12.5272 3.74 13.4739 3.74C14.3006 3.74 15.0206 3.90667 15.6339 4.24C16.2606 4.57333 16.7606 4.99333 17.1339 5.5V3.92H19.9539V15H17.1339V13.38C16.7739 13.9 16.2739 14.3333 15.6339 14.68C15.0072 15.0133 14.2806 15.18 13.4539 15.18C12.5206 15.18 11.6672 14.94 10.8939 14.46C10.1339 13.98 9.52724 13.3067 9.07391 12.44C8.63391 11.56 8.41391 10.5533 8.41391 9.42ZM17.1339 9.46C17.1339 8.78 17.0006 8.2 16.7339 7.72C16.4672 7.22667 16.1072 6.85333 15.6539 6.6C15.2006 6.33333 14.7139 6.2 14.1939 6.2C13.6739 6.2 13.1939 6.32667 12.7539 6.58C12.3139 6.83333 11.9539 7.20667 11.6739 7.7C11.4072 8.18 11.2739 8.75333 11.2739 9.42C11.2739 10.0867 11.4072 10.6733 11.6739 11.18C11.9539 11.6733 12.3139 12.0533 12.7539 12.32C13.2072 12.5867 13.6872 12.72 14.1939 12.72C14.7139 12.72 15.2006 12.5933 15.6539 12.34C16.1072 12.0733 16.4672 11.7 16.7339 11.22C17.0006 10.7267 17.1339 10.14 17.1339 9.46ZM25.4886 5.54C25.8486 5.00667 26.3419 4.57333 26.9686 4.24C27.6086 3.90667 28.3353 3.74 29.1486 3.74C30.0953 3.74 30.9486 3.97333 31.7086 4.44C32.4819 4.90667 33.0886 5.57333 33.5286 6.44C33.9819 7.29333 34.2086 8.28667 34.2086 9.42C34.2086 10.5533 33.9819 11.56 33.5286 12.44C33.0886 13.3067 32.4819 13.98 31.7086 14.46C30.9486 14.94 30.0953 15.18 29.1486 15.18C28.3219 15.18 27.5953 15.02 26.9686 14.7C26.3553 14.3667 25.8619 13.94 25.4886 13.42V15H22.6886V0.2H25.4886V5.54ZM31.3486 9.42C31.3486 8.75333 31.2086 8.18 30.9286 7.7C30.6619 7.20667 30.3019 6.83333 29.8486 6.58C29.4086 6.32667 28.9286 6.2 28.4086 6.2C27.9019 6.2 27.4219 6.33333 26.9686 6.6C26.5286 6.85333 26.1686 7.22667 25.8886 7.72C25.6219 8.21333 25.4886 8.79333 25.4886 9.46C25.4886 10.1267 25.6219 10.7067 25.8886 11.2C26.1686 11.6933 26.5286 12.0733 26.9686 12.34C27.4219 12.5933 27.9019 12.72 28.4086 12.72C28.9286 12.72 29.4086 12.5867 29.8486 12.32C30.3019 12.0533 30.6619 11.6733 30.9286 11.18C31.2086 10.6867 31.3486 10.1 31.3486 9.42ZM39.0433 5.64C39.4033 5.05333 39.8699 4.59333 40.4433 4.26C41.0299 3.92667 41.6966 3.76 42.4433 3.76V6.7H41.7033C40.8233 6.7 40.1566 6.90667 39.7033 7.32C39.2633 7.73333 39.0433 8.45333 39.0433 9.48V15H36.2433V3.92H39.0433V5.64ZM54.6292 9.22C54.6292 9.62 54.6026 9.98 54.5492 10.3H46.4492C46.5159 11.1 46.7959 11.7267 47.2892 12.18C47.7826 12.6333 48.3892 12.86 49.1092 12.86C50.1492 12.86 50.8892 12.4133 51.3292 11.52H54.3492C54.0292 12.5867 53.4159 13.4667 52.5092 14.16C51.6026 14.84 50.4892 15.18 49.1692 15.18C48.1026 15.18 47.1426 14.9467 46.2892 14.48C45.4492 14 44.7892 13.3267 44.3092 12.46C43.8426 11.5933 43.6092 10.5933 43.6092 9.46C43.6092 8.31333 43.8426 7.30667 44.3092 6.44C44.7759 5.57333 45.4292 4.90667 46.2692 4.44C47.1092 3.97333 48.0759 3.74 49.1692 3.74C50.2226 3.74 51.1626 3.96667 51.9892 4.42C52.8292 4.87333 53.4759 5.52 53.9292 6.36C54.3959 7.18667 54.6292 8.14 54.6292 9.22ZM51.7292 8.42C51.7159 7.7 51.4559 7.12667 50.9492 6.7C50.4426 6.26 49.8226 6.04 49.0892 6.04C48.3959 6.04 47.8092 6.25333 47.3292 6.68C46.8626 7.09333 46.5759 7.67333 46.4692 8.42H51.7292ZM60.913 15.18C60.0063 15.18 59.193 15.02 58.473 14.7C57.753 14.3667 57.1796 13.92 56.753 13.36C56.3396 12.8 56.113 12.18 56.073 11.5H58.893C58.9463 11.9267 59.153 12.28 59.513 12.56C59.8863 12.84 60.3463 12.98 60.893 12.98C61.4263 12.98 61.8396 12.8733 62.133 12.66C62.4396 12.4467 62.593 12.1733 62.593 11.84C62.593 11.48 62.4063 11.2133 62.033 11.04C61.673 10.8533 61.093 10.6533 60.293 10.44C59.4663 10.24 58.7863 10.0333 58.253 9.82C57.733 9.60667 57.2796 9.28 56.893 8.84C56.5196 8.4 56.333 7.80667 56.333 7.06C56.333 6.44667 56.5063 5.88667 56.853 5.38C57.213 4.87333 57.7196 4.47333 58.373 4.18C59.0396 3.88667 59.8196 3.74 60.713 3.74C62.033 3.74 63.0863 4.07333 63.873 4.74C64.6596 5.39333 65.093 6.28 65.173 7.4H62.493C62.453 6.96 62.2663 6.61333 61.933 6.36C61.613 6.09333 61.1796 5.96 60.633 5.96C60.1263 5.96 59.733 6.05333 59.453 6.24C59.1863 6.42667 59.053 6.68667 59.053 7.02C59.053 7.39333 59.2396 7.68 59.613 7.88C59.9863 8.06667 60.5663 8.26 61.353 8.46C62.153 8.66 62.813 8.86667 63.333 9.08C63.853 9.29333 64.2996 9.62667 64.673 10.08C65.0596 10.52 65.2596 11.1067 65.273 11.84C65.273 12.48 65.093 13.0533 64.733 13.56C64.3863 14.0667 63.8796 14.4667 63.213 14.76C62.5596 15.04 61.793 15.18 60.913 15.18Z" fill="white"/>
</svg>
