<svg width="96" height="39" viewBox="0 0 96 39" fill="none" xmlns="http://www.w3.org/2000/svg">
<path d="M29.64 13.22V18.58C29.64 18.9533 29.7267 19.2267 29.9 19.4C30.0867 19.56 30.3933 19.64 30.82 19.64H32.12V22H30.36C28 22 26.82 20.8533 26.82 18.56V13.22H25.5V10.92H26.82V8.18H29.64V10.92H32.12V13.22H29.64ZM33.4139 16.42C33.4139 15.3 33.6339 14.3067 34.0739 13.44C34.5272 12.5733 35.1339 11.9067 35.8939 11.44C36.6672 10.9733 37.5272 10.74 38.4739 10.74C39.3006 10.74 40.0206 10.9067 40.6339 11.24C41.2606 11.5733 41.7606 11.9933 42.1339 12.5V10.92H44.9539V22H42.1339V20.38C41.7739 20.9 41.2739 21.3333 40.6339 21.68C40.0072 22.0133 39.2806 22.18 38.4539 22.18C37.5206 22.18 36.6672 21.94 35.8939 21.46C35.1339 20.98 34.5272 20.3067 34.0739 19.44C33.6339 18.56 33.4139 17.5533 33.4139 16.42ZM42.1339 16.46C42.1339 15.78 42.0006 15.2 41.7339 14.72C41.4672 14.2267 41.1072 13.8533 40.6539 13.6C40.2006 13.3333 39.7139 13.2 39.1939 13.2C38.6739 13.2 38.1939 13.3267 37.7539 13.58C37.3139 13.8333 36.9539 14.2067 36.6739 14.7C36.4072 15.18 36.2739 15.7533 36.2739 16.42C36.2739 17.0867 36.4072 17.6733 36.6739 18.18C36.9539 18.6733 37.3139 19.0533 37.7539 19.32C38.2072 19.5867 38.6872 19.72 39.1939 19.72C39.7139 19.72 40.2006 19.5933 40.6539 19.34C41.1072 19.0733 41.4672 18.7 41.7339 18.22C42.0006 17.7267 42.1339 17.14 42.1339 16.46ZM50.4886 12.54C50.8486 12.0067 51.3419 11.5733 51.9686 11.24C52.6086 10.9067 53.3353 10.74 54.1486 10.74C55.0953 10.74 55.9486 10.9733 56.7086 11.44C57.4819 11.9067 58.0886 12.5733 58.5286 13.44C58.9819 14.2933 59.2086 15.2867 59.2086 16.42C59.2086 17.5533 58.9819 18.56 58.5286 19.44C58.0886 20.3067 57.4819 20.98 56.7086 21.46C55.9486 21.94 55.0953 22.18 54.1486 22.18C53.3219 22.18 52.5953 22.02 51.9686 21.7C51.3553 21.3667 50.8619 20.94 50.4886 20.42V22H47.6886V7.2H50.4886V12.54ZM56.3486 16.42C56.3486 15.7533 56.2086 15.18 55.9286 14.7C55.6619 14.2067 55.3019 13.8333 54.8486 13.58C54.4086 13.3267 53.9286 13.2 53.4086 13.2C52.9019 13.2 52.4219 13.3333 51.9686 13.6C51.5286 13.8533 51.1686 14.2267 50.8886 14.72C50.6219 15.2133 50.4886 15.7933 50.4886 16.46C50.4886 17.1267 50.6219 17.7067 50.8886 18.2C51.1686 18.6933 51.5286 19.0733 51.9686 19.34C52.4219 19.5933 52.9019 19.72 53.4086 19.72C53.9286 19.72 54.4086 19.5867 54.8486 19.32C55.3019 19.0533 55.6619 18.6733 55.9286 18.18C56.2086 17.6867 56.3486 17.1 56.3486 16.42ZM64.0433 12.64C64.4033 12.0533 64.8699 11.5933 65.4433 11.26C66.0299 10.9267 66.6966 10.76 67.4433 10.76V13.7H66.7033C65.8233 13.7 65.1566 13.9067 64.7033 14.32C64.2633 14.7333 64.0433 15.4533 64.0433 16.48V22H61.2433V10.92H64.0433V12.64ZM79.6292 16.22C79.6292 16.62 79.6026 16.98 79.5492 17.3H71.4492C71.5159 18.1 71.7959 18.7267 72.2892 19.18C72.7826 19.6333 73.3892 19.86 74.1092 19.86C75.1492 19.86 75.8892 19.4133 76.3292 18.52H79.3492C79.0292 19.5867 78.4159 20.4667 77.5092 21.16C76.6026 21.84 75.4892 22.18 74.1692 22.18C73.1026 22.18 72.1426 21.9467 71.2892 21.48C70.4492 21 69.7892 20.3267 69.3092 19.46C68.8426 18.5933 68.6092 17.5933 68.6092 16.46C68.6092 15.3133 68.8426 14.3067 69.3092 13.44C69.7759 12.5733 70.4292 11.9067 71.2692 11.44C72.1092 10.9733 73.0759 10.74 74.1692 10.74C75.2226 10.74 76.1626 10.9667 76.9892 11.42C77.8292 11.8733 78.4759 12.52 78.9292 13.36C79.3959 14.1867 79.6292 15.14 79.6292 16.22ZM76.7292 15.42C76.7159 14.7 76.4559 14.1267 75.9492 13.7C75.4426 13.26 74.8226 13.04 74.0892 13.04C73.3959 13.04 72.8092 13.2533 72.3292 13.68C71.8626 14.0933 71.5759 14.6733 71.4692 15.42H76.7292ZM85.913 22.18C85.0063 22.18 84.193 22.02 83.473 21.7C82.753 21.3667 82.1796 20.92 81.753 20.36C81.3396 19.8 81.113 19.18 81.073 18.5H83.893C83.9463 18.9267 84.153 19.28 84.513 19.56C84.8863 19.84 85.3463 19.98 85.893 19.98C86.4263 19.98 86.8396 19.8733 87.133 19.66C87.4396 19.4467 87.593 19.1733 87.593 18.84C87.593 18.48 87.4063 18.2133 87.033 18.04C86.673 17.8533 86.093 17.6533 85.293 17.44C84.4663 17.24 83.7863 17.0333 83.253 16.82C82.733 16.6067 82.2796 16.28 81.893 15.84C81.5196 15.4 81.333 14.8067 81.333 14.06C81.333 13.4467 81.5063 12.8867 81.853 12.38C82.213 11.8733 82.7196 11.4733 83.373 11.18C84.0396 10.8867 84.8196 10.74 85.713 10.74C87.033 10.74 88.0863 11.0733 88.873 11.74C89.6596 12.3933 90.093 13.28 90.173 14.4H87.493C87.453 13.96 87.2663 13.6133 86.933 13.36C86.613 13.0933 86.1796 12.96 85.633 12.96C85.1263 12.96 84.733 13.0533 84.453 13.24C84.1863 13.4267 84.053 13.6867 84.053 14.02C84.053 14.3933 84.2396 14.68 84.613 14.88C84.9863 15.0667 85.5663 15.26 86.353 15.46C87.153 15.66 87.813 15.8667 88.333 16.08C88.853 16.2933 89.2996 16.6267 89.673 17.08C90.0596 17.52 90.2596 18.1067 90.273 18.84C90.273 19.48 90.093 20.0533 89.733 20.56C89.3863 21.0667 88.8796 21.4667 88.213 21.76C87.5596 22.04 86.793 22.18 85.913 22.18Z" fill="white"/>
<rect y="4" width="22" height="22" rx="5" fill="#E03228"/>
<path d="M11.64 13.22V18.58C11.64 18.9533 11.7267 19.2267 11.9 19.4C12.0867 19.56 12.3933 19.64 12.82 19.64H14.12V22H12.36C10 22 8.82 20.8533 8.82 18.56V13.22H7.5V10.92H8.82V8.18H11.64V10.92H14.12V13.22H11.64Z" fill="white"/>
<path d="M40.97 35.42C41.61 34.8867 42.12 34.4433 42.5 34.09C42.88 33.73 43.1967 33.3567 43.45 32.97C43.7033 32.5833 43.83 32.2033 43.83 31.83C43.83 31.49 43.75 31.2233 43.59 31.03C43.43 30.8367 43.1833 30.74 42.85 30.74C42.5167 30.74 42.26 30.8533 42.08 31.08C41.9 31.3 41.8067 31.6033 41.8 31.99H40.44C40.4667 31.19 40.7033 30.5833 41.15 30.17C41.6033 29.7567 42.1767 29.55 42.87 29.55C43.63 29.55 44.2133 29.7533 44.62 30.16C45.0267 30.56 45.23 31.09 45.23 31.75C45.23 32.27 45.09 32.7667 44.81 33.24C44.53 33.7133 44.21 34.1267 43.85 34.48C43.49 34.8267 43.02 35.2467 42.44 35.74H45.39V36.9H40.45V35.86L40.97 35.42ZM46.2722 33.26C46.2722 32.1067 46.4789 31.2033 46.8922 30.55C47.3122 29.8967 48.0055 29.57 48.9722 29.57C49.9389 29.57 50.6289 29.8967 51.0422 30.55C51.4622 31.2033 51.6722 32.1067 51.6722 33.26C51.6722 34.42 51.4622 35.33 51.0422 35.99C50.6289 36.65 49.9389 36.98 48.9722 36.98C48.0055 36.98 47.3122 36.65 46.8922 35.99C46.4789 35.33 46.2722 34.42 46.2722 33.26ZM50.2922 33.26C50.2922 32.7667 50.2589 32.3533 50.1922 32.02C50.1322 31.68 50.0055 31.4033 49.8122 31.19C49.6255 30.9767 49.3455 30.87 48.9722 30.87C48.5989 30.87 48.3155 30.9767 48.1222 31.19C47.9355 31.4033 47.8089 31.68 47.7422 32.02C47.6822 32.3533 47.6522 32.7667 47.6522 33.26C47.6522 33.7667 47.6822 34.1933 47.7422 34.54C47.8022 34.88 47.9289 35.1567 48.1222 35.37C48.3155 35.5767 48.5989 35.68 48.9722 35.68C49.3455 35.68 49.6289 35.5767 49.8222 35.37C50.0155 35.1567 50.1422 34.88 50.2022 34.54C50.2622 34.1933 50.2922 33.7667 50.2922 33.26ZM53.177 35.42C53.817 34.8867 54.327 34.4433 54.707 34.09C55.087 33.73 55.4037 33.3567 55.657 32.97C55.9104 32.5833 56.037 32.2033 56.037 31.83C56.037 31.49 55.957 31.2233 55.797 31.03C55.637 30.8367 55.3904 30.74 55.057 30.74C54.7237 30.74 54.467 30.8533 54.287 31.08C54.107 31.3 54.0137 31.6033 54.007 31.99H52.647C52.6737 31.19 52.9104 30.5833 53.357 30.17C53.8104 29.7567 54.3837 29.55 55.077 29.55C55.837 29.55 56.4204 29.7533 56.827 30.16C57.2337 30.56 57.437 31.09 57.437 31.75C57.437 32.27 57.297 32.7667 57.017 33.24C56.737 33.7133 56.417 34.1267 56.057 34.48C55.697 34.8267 55.227 35.2467 54.647 35.74H57.597V36.9H52.657V35.86L53.177 35.42ZM58.9192 35.42C59.5592 34.8867 60.0692 34.4433 60.4492 34.09C60.8292 33.73 61.1459 33.3567 61.3992 32.97C61.6526 32.5833 61.7792 32.2033 61.7792 31.83C61.7792 31.49 61.6992 31.2233 61.5392 31.03C61.3792 30.8367 61.1326 30.74 60.7992 30.74C60.4659 30.74 60.2092 30.8533 60.0292 31.08C59.8492 31.3 59.7559 31.6033 59.7492 31.99H58.3892C58.4159 31.19 58.6526 30.5833 59.0992 30.17C59.5526 29.7567 60.1259 29.55 60.8192 29.55C61.5792 29.55 62.1626 29.7533 62.5692 30.16C62.9759 30.56 63.1792 31.09 63.1792 31.75C63.1792 32.27 63.0392 32.7667 62.7592 33.24C62.4792 33.7133 62.1592 34.1267 61.7992 34.48C61.4392 34.8267 60.9692 35.2467 60.3892 35.74H63.3392V36.9H58.3992V35.86L58.9192 35.42Z" fill="white"/>
</svg>
