<svg width="18" height="18" viewBox="0 0 18 18" fill="none" xmlns="http://www.w3.org/2000/svg">
<path d="M0.642857 3.30612H17.3571C17.7122 3.30612 18 2.97721 18 2.57143V0.734694C18 0.328913 17.7122 0 17.3571 0H0.642857C0.287799 0 0 0.328913 0 0.734694V2.57143C0 2.97721 0.287799 3.30612 0.642857 3.30612ZM0.642857 10.6531H17.3571C17.7122 10.6531 18 10.3241 18 9.91837V8.08163C18 7.67585 17.7122 7.34694 17.3571 7.34694H0.642857C0.287799 7.34694 0 7.67585 0 8.08163V9.91837C0 10.3241 0.287799 10.6531 0.642857 10.6531ZM0.642857 18H17.3571C17.7122 18 18 17.6711 18 17.2653V15.4286C18 15.0228 17.7122 14.6939 17.3571 14.6939H0.642857C0.287799 14.6939 0 15.0228 0 15.4286V17.2653C0 17.6711 0.287799 18 0.642857 18Z" fill="#E03228"/>
</svg>
